<?xml version="1.0" encoding="utf-8"?>
<svg viewBox="6.624 0.697 811.751 304.606" xmlns="http://www.w3.org/2000/svg">
  <defs>
    <radialGradient gradientUnits="userSpaceOnUse" cx="63.792" cy="51.923" r="161.052" id="gradient-0" gradientTransform="matrix(1.877177, 2.149691, -2.19704, 0.353061, 58.119999, -103.542086)">
      <stop offset="0" style="stop-color: rgb(255, 120, 120);"/>
      <stop offset="1" style="stop-color: rgb(107, 107, 107);"/>
    </radialGradient>
    <radialGradient gradientUnits="userSpaceOnUse" cx="218.828" cy="230.089" r="161.052" id="gradient-1">
      <stop offset="0" style="stop-color: rgb(111, 89, 89);"/>
      <stop offset="1" style="stop-color: rgb(53, 3, 3);"/>
    </radialGradient>
  </defs>
  <g transform="matrix(0, -0.925004, 2.170176, -0.00523, -70.863907, 358.802124)" style="filter: none;">
    <path d="M 92.686 408.54 C 76.031 408.485 59.333 397.464 59.325 377.815 C 60.058 359.934 60.006 79.075 60.475 70.425 C 60.961 46.475 76.043 37.436 93.836 37.376 C 118.405 37.134 326.686 37.031 344.616 37.376 C 364.619 37.259 381.268 46.398 381.428 70.425 C 381.413 89.693 381.233 363.335 381.428 379.305 C 381.483 396.409 365.762 409.203 347.172 408.541 C 333.236 408.203 102.032 408.413 92.682 408.541 L 92.686 408.54 Z" fill-rule="evenodd" style="fill-opacity: 0.8; vector-effect: non-scaling-stroke; stroke-width: 6px; stroke: url(#gradient-0); fill: url(#gradient-1);"/>
  </g>
</svg>